<svg class="svg-01" version="1.1" xmlns="http://www.w3.org/2000/svg" xmlns:xlink="http://www.w3.org/1999/xlink" x="0px" y="0px"
	 viewBox="0 0 365 376" style="enable-background:new 0 0 365 376;" xml:space="preserve">
<g id="Layer_1">
</g>
<g id="Layer_2">
	<g>
		<polygon id="polygon-test-1" class="st0" points="218.255,126.282 289.082,167.143 218.529,208.023 		"/>
		<polygon class="st1" points="218.039,126.58 147.071,167.279 218.313,208.32 		"/>
		<polygon class="st0" points="147.129,85.295 147.287,166.981 218.255,126.282 		"/>
		<polygon class="st0" points="289.118,85.539 289.082,167.143 218.255,126.282 		"/>
		<polygon class="st0" points="218.106,44.777 289.231,85.776 218.368,126.52 		"/>
		<polygon class="st0" points="147.129,85.295 217.993,44.539 218.255,126.282 		"/>
		<polygon class="st0" points="147.163,85.237 217.989,126.098 147.436,166.977 		"/>
		<polygon class="st0" points="147.163,85.237 76.194,125.936 147.436,166.977 		"/>
		<polygon class="st0" points="76.037,44.25 76.194,125.936 147.163,85.237 		"/>
		<polygon class="st0" points="218.026,44.494 217.989,126.098 147.163,85.237 		"/>
		<polygon class="st0" points="146.9,3.494 218.026,44.494 147.163,85.237 		"/>
		<polygon class="st0" points="76.037,44.25 146.9,3.494 147.163,85.237 		"/>
		<polygon class="st0" points="289.458,167.391 360.284,208.252 289.731,249.131 		"/>
		<polygon class="st0" points="289.458,167.391 218.49,208.09 289.731,249.131 		"/>
		<polygon class="st0" points="218.332,126.404 218.49,208.09 289.458,167.391 		"/>
		<polygon class="st0" points="360.321,126.648 360.284,208.252 289.458,167.391 		"/>
		<polygon class="st0" points="289.196,85.648 360.321,126.648 289.458,167.391 		"/>
		<polygon class="st0" points="218.332,126.404 289.196,85.648 289.458,167.391 		"/>
		<polygon class="st0" points="147.503,248.829 218.329,289.69 147.776,330.569 		"/>
		<polygon class="st0" points="147.503,248.654 76.535,289.353 147.776,330.394 		"/>
		<polygon class="st0" points="218.366,208.086 218.329,289.69 147.503,248.829 		"/>
		<polygon class="st0" points="147.241,167.086 218.366,208.086 147.503,248.829 		"/>
		<polygon class="st0" points="76.377,207.842 147.241,167.086 147.503,248.829 		"/>
		<polygon class="st0" points="76.297,207.612 147.124,248.474 76.571,289.353 		"/>
		<polygon class="st0" points="76.41,207.784 5.442,248.483 76.684,289.524 		"/>
		<polygon class="st0" points="5.284,166.796 5.442,248.483 76.41,207.784 		"/>
		<polygon class="st0" points="147.273,167.04 147.237,248.645 76.41,207.784 		"/>
		<polygon class="st0" points="76.148,126.041 147.273,167.04 76.41,207.784 		"/>
		<polygon class="st0" points="5.284,166.796 76.148,126.041 76.41,207.784 		"/>
		<polygon class="st0" points="218.705,289.938 289.532,330.799 218.979,371.678 		"/>
		<polygon class="st0" points="218.705,289.938 147.737,330.637 218.979,371.678 		"/>
		<polygon class="st0" points="147.579,248.951 147.737,330.637 218.705,289.938 		"/>
		<polygon class="st0" points="289.568,249.195 289.532,330.799 218.705,289.938 		"/>
		<polygon class="st0" points="218.443,208.195 289.568,249.195 218.705,289.938 		"/>
		<polygon class="st0" points="147.579,248.951 218.443,208.195 218.705,289.938 		"/>
	</g>
</g>
</svg>
